<svg xmlns="http://www.w3.org/2000/svg" xml:space="preserve" width="48" height="48"><path fill="#4D4B4A" d="M10.315 42.155q-5.503 0-7.909-3.645Q-.001 34.867 0 30.601q0-6.189 4.056-12.378c4.056-6.189 7.174-8.252 13.411-12.378l3.85 5.089a91 91 0 0 0-4.607 3.714q-2.407 2.064-4.127 4.264t-1.719 4.539q0 2.888 3.027 3.713l5.089 1.514q1.099 2.752.618 5.914-.482 3.165-2.75 5.364-2.27 2.199-6.533 2.199m26.681 0q-5.502 0-7.908-3.645-2.408-3.643-2.408-7.908 0-6.189 4.058-12.378 4.054-6.19 13.409-12.379L48 10.934a92 92 0 0 0-4.609 3.714q-2.407 2.064-4.125 4.264-1.72 2.201-1.719 4.539-.001 2.888 3.025 3.713l5.089 1.514q1.1 2.752.62 5.914-.481 3.165-2.752 5.364t-6.533 2.199"/></svg>