<svg xmlns="http://www.w3.org/2000/svg" width="48" height="48" viewBox="0 0 48 48"><path fill="#4D4B4A" d="M3.851 42.154L0 37.065a91.831 91.831 0 004.607-3.712c1.603-1.375 2.978-2.821 4.127-4.332 1.145-1.513 1.719-3.004 1.719-4.47 0-1.925-1.011-3.163-3.025-3.713l-5.09-1.514c-.734-1.832-.94-3.804-.618-5.914.319-2.108 1.237-3.896 2.75-5.364 1.513-1.465 3.69-2.2 6.533-2.2 3.759 0 6.418 1.193 7.978 3.576 1.558 2.385 2.337 5.043 2.337 7.977 0 4.126-1.353 8.252-4.056 12.378-2.708 4.125-7.177 8.252-13.411 12.377zm26.682 0l-3.851-5.089a91.837 91.837 0 004.609-3.712c1.603-1.375 2.978-2.821 4.125-4.332 1.147-1.513 1.719-3.004 1.719-4.47 0-1.925-1.009-3.163-3.025-3.713l-5.089-1.514c-.735-1.832-.942-3.804-.62-5.914.321-2.108 1.239-3.896 2.752-5.364 1.513-1.465 3.69-2.2 6.533-2.2 3.759 0 6.417 1.193 7.976 3.576C47.219 11.807 48 14.466 48 17.399c0 4.126-1.353 8.252-4.058 12.378-2.705 4.125-7.175 8.252-13.409 12.377z"/></svg>