<svg xmlns="http://www.w3.org/2000/svg" xml:space="preserve" width="48" height="48" viewBox="0 0 48 48"><path fill="#4D4B4A" d="M3.851 42.154 0 37.065a92 92 0 0 0 4.607-3.712q2.404-2.064 4.127-4.332 1.718-2.27 1.719-4.47-.002-2.888-3.025-3.713l-5.09-1.514q-1.101-2.749-.618-5.914.48-3.162 2.75-5.364 2.269-2.199 6.533-2.2 5.638 0 7.978 3.576 2.337 3.577 2.337 7.977 0 6.189-4.056 12.378-4.061 6.189-13.411 12.377m26.682 0-3.851-5.089a92 92 0 0 0 4.609-3.712q2.405-2.064 4.125-4.332 1.72-2.27 1.719-4.47 0-2.888-3.025-3.713l-5.089-1.514q-1.103-2.749-.62-5.914.482-3.162 2.752-5.364 2.269-2.199 6.533-2.2 5.638 0 7.976 3.576T48 17.399q0 6.189-4.058 12.378T30.533 42.154"/></svg>