<svg xmlns="http://www.w3.org/2000/svg" width="48" height="48" viewBox="0 0 48 48"><path fill="#4D4B4A" d="M10.315 42.155c-3.668 0-6.306-1.214-7.909-3.645C.801 36.081 0 33.445 0 30.601c0-4.126 1.352-8.252 4.056-12.378S11.23 9.971 17.467 5.845l3.85 5.089a91.133 91.133 0 00-4.607 3.714c-1.605 1.375-2.98 2.798-4.127 4.264-1.147 1.467-1.719 2.981-1.719 4.539 0 1.925 1.009 3.163 3.027 3.713l5.089 1.514c.732 1.835.939 3.805.618 5.914-.322 2.11-1.237 3.898-2.75 5.364-1.513 1.466-3.692 2.199-6.533 2.199zm26.681 0c-3.668 0-6.304-1.214-7.908-3.645-1.605-2.429-2.408-5.065-2.408-7.908 0-4.126 1.352-8.252 4.058-12.378 2.703-4.126 7.172-8.253 13.409-12.379L48 10.934a91.587 91.587 0 00-4.609 3.714c-1.605 1.375-2.98 2.798-4.125 4.264-1.148 1.467-1.719 2.981-1.719 4.539 0 1.925 1.007 3.163 3.025 3.713l5.089 1.514c.734 1.835.94 3.805.62 5.914-.322 2.11-1.237 3.898-2.752 5.364-1.513 1.466-3.692 2.199-6.533 2.199z"/></svg>