<?xml version="1.0" encoding="utf-8"?>
<svg version="1.1" xmlns="http://www.w3.org/2000/svg" xmlns:xlink="http://www.w3.org/1999/xlink" x="0px" y="0px"
	 width="48px" height="48px" viewBox="0 0 48 48" enable-background="new 0 0 48 48" xml:space="preserve">
<g>
	<path fill="#4D4B4A" d="M10.315,42.155c-3.668,0-6.306-1.214-7.909-3.645C0.801,36.081,0,33.445,0,30.601
		c0-4.126,1.352-8.252,4.056-12.378S11.23,9.971,17.467,5.845l3.85,5.089c-1.467,1.101-3.004,2.339-4.607,3.714
		c-1.605,1.375-2.98,2.798-4.127,4.264c-1.147,1.467-1.719,2.981-1.719,4.539c0,1.925,1.009,3.163,3.027,3.713l5.089,1.514
		c0.732,1.835,0.939,3.805,0.618,5.914c-0.322,2.11-1.237,3.898-2.75,5.364C15.335,41.422,13.156,42.155,10.315,42.155z
		 M36.996,42.155c-3.668,0-6.304-1.214-7.908-3.645c-1.605-2.429-2.408-5.065-2.408-7.908c0-4.126,1.352-8.252,4.058-12.378
		c2.703-4.126,7.172-8.253,13.409-12.379L48,10.934c-1.467,1.101-3.005,2.339-4.609,3.714c-1.605,1.375-2.98,2.798-4.125,4.264
		c-1.148,1.467-1.719,2.981-1.719,4.539c0,1.925,1.007,3.163,3.025,3.713l5.089,1.514c0.734,1.835,0.94,3.805,0.62,5.914
		c-0.322,2.11-1.237,3.898-2.752,5.364C42.016,41.422,39.837,42.155,36.996,42.155z"/>
</g>
</svg>
