<?xml version="1.0" encoding="utf-8"?>
<svg version="1.1" xmlns="http://www.w3.org/2000/svg" xmlns:xlink="http://www.w3.org/1999/xlink" x="0px" y="0px"
	 width="48px" height="48px" viewBox="0 0 48 48" enable-background="new 0 0 48 48" xml:space="preserve">
<g>
	<path fill="#4D4B4A" d="M3.851,42.154L0,37.065c1.466-1.1,3.002-2.337,4.607-3.712c1.603-1.375,2.978-2.821,4.127-4.332
		c1.145-1.513,1.719-3.004,1.719-4.47c0-1.925-1.011-3.163-3.025-3.713l-5.09-1.514c-0.734-1.832-0.94-3.804-0.618-5.914
		c0.319-2.108,1.237-3.896,2.75-5.364c1.513-1.465,3.69-2.2,6.533-2.2c3.759,0,6.418,1.193,7.978,3.576
		c1.558,2.385,2.337,5.043,2.337,7.977c0,4.126-1.353,8.252-4.056,12.378C14.554,33.902,10.085,38.029,3.851,42.154z M30.533,42.154
		l-3.851-5.089c1.466-1.1,3.004-2.337,4.609-3.712c1.603-1.375,2.978-2.821,4.125-4.332c1.147-1.513,1.719-3.004,1.719-4.47
		c0-1.925-1.009-3.163-3.025-3.713l-5.089-1.514c-0.735-1.832-0.942-3.804-0.62-5.914c0.321-2.108,1.239-3.896,2.752-5.364
		c1.513-1.465,3.69-2.2,6.533-2.2c3.759,0,6.417,1.193,7.976,3.576C47.219,11.807,48,14.466,48,17.399
		c0,4.126-1.353,8.252-4.058,12.378C41.237,33.902,36.767,38.029,30.533,42.154z"/>
</g>
</svg>
